<svg version="1.2" xmlns="http://www.w3.org/2000/svg" viewBox="0 0 420 478" width="420" height="478">
	<title>sprite_PlayerPortrait</title>
	<defs>
		<filter x="-50%" y="-50%" width="200%" height="200%" id="f1" ><feDropShadow dx="0" dy="0" stdDeviation="16.666666666666668" flood-color="#ffffbe" flood-opacity=".4"/></filter>
	</defs>
	<style>
		.s0 { opacity: .6;filter: url(#f1);fill: #1f1e1c } 
	</style>
	<path id="sprite_PlayerPortrait" fill-rule="evenodd" class="s0" d="m51.2 338.4c31.5-23 79.4-29.5 79.4-29.5l5.4-28.9c-2.4-2.2-5.4-9.5-5.4-9.5l-3.1-38.9c-21.6-0.9-19.4-52-17.3-59 2.1-7.1 13.2-7.2 13.2-7.2 0 0-4.2-40.1 3.1-64.1 8.4-29.8 28.9-45.5 48.2-53.8 28.9-13.1 54.1-9.8 76-1.1 20 8 42.4 23.6 50.8 54.9 7.6 25.8 3.1 64.1 3.1 64.1 0 0 11.1 0.1 13.2 7.2 2.1 7-2.2 58.6-23.8 59.4l-5.5 38.1c0 0-3.8 9.6-6.5 11.9l3.3 29c0 0 48.3 6.3 88.4 30.4 4.5 1.9 9.7 3.4 15.1 4.7-39.5 55.9-104.6 92.4-178.2 92.4-74 0-139.3-36.9-178.7-93.3 6.7-2.1 13.3-4.3 19.3-6.8z"/>
</svg>