<svg version="1.2" xmlns="http://www.w3.org/2000/svg" viewBox="0 0 66 68" width="66" height="68">
	<title>sprite_CrossIcon</title>
	<defs>
		<filter x="-50%" y="-50%" width="200%" height="200%" id="f1" ><feDropShadow dx="-1.2246467991473532e-16" dy="2" stdDeviation="3.3333333333333335" flood-color="#000000" flood-opacity=".8"/></filter>
	</defs>
	<style>
		.s0 { filter: url(#f1);fill: #ff0000 } 
	</style>
	<path id="sprite_CrossIcon" class="s0" d="m45 9.5c-0.3 0-0.8 0.5-2.4 2.3-6.7 6.5-12.7 16.7-12.7 16.7 0 0-6.1-9.6-11.9-14.5-5.1-5.1-6.4 0.6-8 4 1.5 3.8 7.4 9.6 14.2 15.8 1.3 1.2-9.2 15-8.2 16.2 1.8 2.1 13.9-9.4 14.3-9.4 0.9 0 13.8 15.3 15.7 13.4 0.5-0.5-10.5-17.7-9.3-18.8 5.4-5.4 8.3-6 12-9.1 5.6-4.8 7.1-6 7.1-6.7 0-0.8-0.6-1.1-1.5-2 0 0-2.2-3.2-9.3-7.9z"/>
</svg>