<svg version="1.2" xmlns="http://www.w3.org/2000/svg" viewBox="0 0 72 62" width="72" height="62">
	<title>sprite_TickIcon</title>
	<defs>
		<filter x="-50%" y="-50%" width="200%" height="200%" id="f1" ><feDropShadow dx="-1.2246467991473532e-16" dy="2" stdDeviation="3.3333333333333335" flood-color="#000000" flood-opacity=".8"/></filter>
	</defs>
	<style>
		.s1 { filter: url(#f1);fill: #5ad500 } 
	</style>
	<path id="sprite_TickIcon" class="s1" d="m51 8.5c-0.3 0-0.8 0.5-2.4 2.3-6.7 6.5-20.7 26.7-20.7 26.7 0 0-7.7-6.1-13.5-11-0.5-0.5-2.1-2-3-2-0.6 0-0.7 0.5-0.7 0.9 0 0.8 0.7 1.8 1.9 3.4 8 10.5 9.3 14.3 12.3 17.9 1.8 2 3 2.9 3.4 2.9 0.9 0 1.8-0.9 3.7-2.8 3.2-3.1 18.2-17.9 22.7-21.7 5.6-4.8 7.1-6 7.1-6.7 0-0.8-0.6-1.1-1.5-2 0 0-2.2-3.2-9.3-7.9z"/>
</svg>