<?xml version="1.0" encoding="utf-8"?>
<svg xmlns="http://www.w3.org/2000/svg" viewBox="0 0 310.8801 257.3914" width="310.88px" height="257.391px">
  <defs>
    <style>
      .st1 {
        fill: #e0e0e0;
      }

      .st2 {
        fill: #f80000;
      }
    </style>
  </defs>
  <g id="Dragon_Icon" transform="matrix(1, 0, 0, 1, -1092.72998046875, -229.67453002929688)">
    <g id="Dragon_Icon1" data-name="Dragon_Icon">
      <path id="Dragon_Icon2" data-name="Dragon_Icon" class="st2" d="M1192.07,344.24c.94-1.56.31-6.39-.47-9.36s-3.59-6.08-11.54-12.79c-7.95-6.71-14.82-9.2-27.45-10.14s-16.22,1.72-20.28,4.21-3.12,6.55-3.12,6.55c0,0-2.03.62-4.83-.78-2.81-1.4-5.46-.47-8.11-.94s-6.55-4.37-6.55-4.37c0,0,6.24.62,7.8,0s5.15-2.18,5.77-3.59-.31-1.87-.31-1.87c0,0,2.96-1.56,3.59-2.65.62-1.09,1.4-3.74,1.4-3.74-4.37-.16-4.52,1.4-4.52,1.4,0,0-2.81-.31-7.95,1.56s-8.58,6.71-8.58,6.71c-.78-1.25-.62-3.12-.62-3.12-4.52,1.25-7.49,6.08-7.49,6.08-1.25-2.5-1.09-5.77-1.4-7.17-.31-1.4-1.09-2.03-2.81-3.74s-1.87-5.15-1.87-5.15c0,0,8.11,1.56,15.13-.94s9.98-3.9,11.54-5.93c1.56-2.03-1.72-2.65-1.56-3.9s3.12-2.18,6.55-2.65,7.8-1.09,10.76-3.43c2.96-2.34,5.93-4.83,7.17-5.93,1.25-1.09,3.9,0,8.11-1.87,4.21-1.87,10.76-6.55,16.69-9.51,5.93-2.96,9.98-3.9,12.79-3.74,0,0-8.58,6.71-14.35,11.7-2.4,2.08-4.52,4.37-6.08,6.71-1.21,1.81.23,3.02,2.4,3.19,1.03.08,2.26.12,3.69.08,5.61-.16,13.57-4.37,24.33-1.56,0,0-4.99,1.56-6.39,5.15-1.4,3.59.78,10.14,13.41,11.39s23.55-8.11,23.55-8.11c0,0,9.5.34,19.18-7.33,7.49-5.93,13.26-19.65,8.11-33.69-4.55-12.41-18.09-19.96-27.92-21.05,0,0,57.15-5.47,109.62,35.23,71.17,55.2,74.15,145.32,74.15,145.32,0,0-15.4-73.79-73.88-97.42-26.79-10.82-46,2.44-47.63,9.2,0,0-14.88-5.95-28.41-3.52-13.53,2.44-9.2,10.28-1.89,13.53,7.31,3.25,17.32,6.49,22.19,14.34,0,0-9.74,0-6.49,10.55s15.7,19.48,12.72,37.61c0,0-3.67-6.02-8.93-2.16-4.06,2.98-5.14,9.74-6.22,19.21-.96,8.44-.54,27.87-11.37,40.05,0,0,1.08-9.2-2.98-9.2s-8.39,6.49-20.57,18.4-28.14,18.4-42.49,21.38c0,0-3.25-4.33-9.74-4.06s-19.21,1.89-19.21,1.89c0,0,4.87,4.87,13.8,6.22-26.75,3.05-48.99-5.88-65.49-30.04,0,0,23.84,18.42,56.02,15.7,47.9-4.06,69.28-48.98,69.28-73.06s-8.12-40.59-22.19-52.77c0,0-7.36,3.36-2.89,14.59,0,0-9.73-4.3-16.27-4.46-5.41-.14-7.9,1.9-9.52,5.03-1.43,2.75-1.14,5.2-.27,7.07,0,0,1.3,4.61-3.02,7.06,0,0,.72-3.46-2.74-6.77s-6.34-5.9-8.21-5.9-6.77-.14-9.94,1.3c0,0-4.32-1.44-7.92-3.89s-8.64-2.16-12.96.86c0,0,.72-5.18,5.33-7.63,4.61-2.45,7.49-1.73,7.49-1.73,0,0,1.01,2.3,3.31,2.74s4.18.14,4.18.14c0,0-2.59-6.77-5.18-8.21-2.59-1.44-6.34-2.74-10.66-1.44,0,0,5.04-7.49,17.28-3.89,0,0-.29,2.16,1.44,4.18,1.73,2.02,3.6,4.9,4.9,5.62s2.59-4.32-1.58-8.06c0,0,4.32.72,6.34,2.88,0,0-.43,3.74,3.31,4.75s19.55-6.32,19.55-6.32Z"/>
    </g>
    <g id="Eye_Dragon">
      <path id="Eye_Dragon1" data-name="Eye_Dragon" class="st1" d="M1124.69,292s2.34-.31,4.68-1.09,3.28-.16,3.28-.16c0,0-.31,2.03-2.81,3.12-2.5,1.09-3.74-1.25-3.74-1.25l-1.4-.62Z"/>
    </g>
  </g>
</svg>